<?xml version="1.0" encoding="iso-8859-1"?>
<!-- Uploaded to: SVG Repo, www.svgrepo.com, Generator: SVG Repo Mixer Tools -->
<svg height="800px" width="800px" version="1.1" id="Layer_1" xmlns="http://www.w3.org/2000/svg" xmlns:xlink="http://www.w3.org/1999/xlink" 
	 viewBox="0 0 512 512" xml:space="preserve">
<path style="fill:#FF4328;" d="M150.468,411.826h71.811V512l-35.891-15.944L150.468,512V411.826L150.468,411.826z"/>
<path style="fill:#391B10;" d="M136.348,432.388H58.435c-6.147,0-11.13-4.983-11.13-11.13V11.13C47.304,4.983,52.287,0,58.435,0
	h77.913c6.147,0,11.13,4.983,11.13,11.13v410.128C147.478,427.405,142.495,432.388,136.348,432.388z"/>
<path style="fill:#874328;" d="M102.675,0h350.89c6.147,0,11.13,4.983,11.13,11.13v410.128c0,6.147-4.983,11.13-11.13,11.13h-350.89
	V0L102.675,0z"/>
<path style="fill:#CAEEC5;" d="M241.7,164.374c3.602-15.952,17.919-27.871,35.031-27.871c17.112,0,31.435,11.918,35.031,27.871
	c5.599-3.588,12.265-5.673,19.42-5.673c19.829,0,35.906,16,35.906,35.736c0,19.735-16.077,35.736-35.906,35.736
	c-5.541,0-10.794-1.252-15.479-3.486v69.197h-77.94v-69.197c-4.687,2.234-9.937,3.486-15.485,3.486
	c-19.829,0-35.906-16.001-35.906-35.736c0-19.736,16.077-35.736,35.906-35.736C229.433,158.701,236.101,160.786,241.7,164.374
	L241.7,164.374z"/>
<path style="fill:#97BAA8;" d="M315.704,227.543v44.732v23.61h-77.94v-14.45v-53.892v-1.072h77.94V227.543z"/>
</svg>