<!-- <?xml version="1.0" encoding="iso-8859-1"?>
Uploaded to: SVG Repo, www.svgrepo.com, Generator: SVG Repo Mixer Tools -->
<svg class="m-auto" style="width: 100px;" xmlns="http://www.w3.org/2000/svg" viewBox="0 0 512 512">
  <path fill="#FF9800"
    d="M416 160c0-26.5-21.5-48-48-48h-32c-26.5 0-48 21.5-48 48v160c0 26.5 21.5 48 48 48h32c26.5 0 48-21.5 48-48V160z" />
  <path fill="#FF9800"
    d="M312.6 128h-95.2c-14.8 0-26.6 11.8-26.6 26.6 0 14.8 11.8 26.6 26.6 26.6h95.2c14.8 0 26.6-11.8 26.6-26.6 0-14.8-11.8-26.6-26.6-26.6z" />
  <path fill="#FF9800"
    d="M224 48C100.3 48 0 148.3 0 272s100.3 224 224 224 224-100.3 224-224S347.7 48 224 48zm0 336c-88.2 0-160-71.8-160-160S135.8 112 224 112s160 71.8 160 160-71.8 160-160 160z" />
</svg>